<?xml version="1.0" encoding="UTF-8"?>
<svg id="Camada_2" data-name="Camada 2" xmlns="http://www.w3.org/2000/svg" viewBox="0 0 687.4 303.38">
  <defs>
    <style>
      .cls-1 {
        fill: #3c3c3b;
      }
    </style>
  </defs>
  <g id="Camada_1-2" data-name="Camada 1-2">
    <g>
      <g>
        <path class="cls-1" d="M661.69,125.02c6.88,0,13.76-.02,20.63,0,3.85.01,5.03,1.12,5.05,4.98.05,11.28.05,22.57,0,33.85-.02,3.85-1.24,5.03-5.03,5.04-13.76.03-27.51.03-41.27,0-3.81,0-5.03-1.17-5.05-5.02-.05-11.28-.05-22.57,0-33.85.02-3.88,1.19-4.98,5.03-5,6.88-.03,13.76,0,20.63,0h.01Z"/>
        <g>
          <path class="cls-1" d="M173.98,11.03c0-6.09-4.94-11.03-11.03-11.03h-51.88c-6.4,0-11.59,5.19-11.59,11.59v29.74c0,.96.78,1.74,1.74,1.74h8.48c6.55,0,12.13,4.79,13.08,11.27,1,6.81,2.53,13.58,4.85,20.27.38,1.09-.4,2.25-1.55,2.32-2.47.15-2.71-.48-4-3.66-5.22-12.91-14.2-22.05-27.43-26.58-16.61-5.69-33.54-6.28-50.45-1.58-18.4,5.12-31.54,16.57-38.84,34.31-5.95,14.48-6.71,29.56-3.43,44.68,4.75,21.87,17.58,37.19,38.98,44.48,17.28,5.89,34.81,5.41,52.13,0,14.16-4.43,23.81-13.9,29.2-27.71,1.19-3.04,1.4-3.55,4.04-3.18,1.01.14,1.68,1.12,1.46,2.11-2.06,8.94-4.11,17.88-6.2,26.95-.25,1.1.58,2.16,1.71,2.16h50.73v-.05h14.21c5.32,0,9.63-4.31,9.63-9.63v-23.83c0-5.3-4.3-9.6-9.6-9.6h-4.22c-5.54,0-10.03-4.49-10.03-10.03V11.03h0ZM105.59,127.79c-7.67,3.51-15.89,4.11-24.12,3.18-4.76-.54-9.67-1.51-14.05-3.35-8.7-3.67-13.99-10.35-14.02-20.16-.03-9.92,5.38-16.42,14.05-20.47,6.13-2.86,12.71-3.43,19.4-3.56,6.45.15,12.88.73,18.83,3.54,8.62,4.07,14.07,10.44,14.05,20.45-.02,10-5.46,16.42-14.13,20.38h-.01Z"/>
          <path class="cls-1" d="M402.96,125.79h-3.29c-5.18,0-9.39-4.18-9.42-9.36-.02-2.84-.04-5.69-.07-8.53-.07-6.26-.53-12.61-1.75-18.73-3.77-18.82-13.97-32.99-31.7-41.09-12.37-5.65-25.47-6.6-38.87-5.48-22.24,1.86-37.56,13.75-44.53,34.82-1.06,3.19-1.35,3.77-3.97,3.31-.96-.17-1.6-1.1-1.4-2.06,2.11-10.22,4.21-20.45,6.32-30.69.22-1.09-.61-2.11-1.72-2.11h-50.89v-.03h-12.47c-6.28,0-11.38,5.09-11.38,11.38v29.95c0,.96.78,1.74,1.74,1.74h13.54c4.73,0,8.56,3.83,8.56,8.56v62.81c0,4.77,3.87,8.64,8.64,8.64h44.44v-.06h15.08c.96,0,1.74-.78,1.74-1.74v-39.58c0-.96-.78-1.74-1.74-1.74h-11.33c-2.07,0-3.74-1.69-3.73-3.75v-.02c.01-3.1.09-6.22.52-9.28,1.67-11.75,7.57-20.44,19.23-24,4.39-1.34,9.26-1.73,13.88-1.61,13.55.36,23.69,8.04,27.02,20.4,1.12,4.16,1.59,8.59,1.65,12.91.19,15.27.08,30.54.08,45.82h0c0,1.47,1.19,2.66,2.66,2.66h48.7c.13,0,.25-.02.37-.04h14.09c2.05,0,3.71-.78,3.71-1.74v-39.58c0-.96-1.66-1.74-3.71-1.74v-.04Z"/>
          <path class="cls-1" d="M611.8,125.79h-3.29c-5.18,0-9.39-4.18-9.42-9.36-.02-2.84-.04-5.69-.07-8.53-.07-6.26-.53-12.61-1.75-18.73-3.77-18.82-13.97-32.99-31.7-41.09-12.37-5.65-25.47-6.6-38.87-5.48-22.24,1.86-37.56,13.75-44.53,34.82-1.06,3.19-1.35,3.77-3.97,3.31-.96-.17-1.6-1.1-1.4-2.06,2.11-10.22,4.21-20.45,6.32-30.69.22-1.09-.61-2.11-1.72-2.11h-50.89v-.03h-12.47c-6.28,0-11.38,5.09-11.38,11.38v29.95c0,.96.78,1.74,1.74,1.74h13.54c4.73,0,8.56,3.83,8.56,8.56v64.58c0,3.79,3.08,6.87,6.87,6.87h46.21v-.06h15.08c.96,0,1.74-.78,1.74-1.74v-39.58c0-.96-.78-1.74-1.74-1.74h-11.33c-2.07,0-3.74-1.69-3.73-3.75v-.02c.01-3.1.09-6.22.52-9.28,1.67-11.75,7.57-20.44,19.23-24,4.39-1.34,9.26-1.73,13.88-1.61,13.55.36,23.69,8.04,27.02,20.4,1.12,4.16,1.59,8.59,1.65,12.91.19,15.27.08,30.54.08,45.82h0c0,1.47,1.19,2.66,2.66,2.66h48.7c.13,0,.25-.02.37-.04h14.09c2.05,0,3.71-.78,3.71-1.74v-39.58c0-.96-1.66-1.74-3.71-1.74v-.04Z"/>
        </g>
      </g>
      <g>
        <path class="cls-1" d="M223.81,202.91h14.18c11.69,0,16.84,5.82,16.84,16.23s-6.31,17-16.95,17h-14.07v-33.23ZM231.79,209.5v20.11h5.48c6.92,0,9.58-3.49,9.58-10.47s-2.83-9.64-9.86-9.64h-5.21Z"/>
        <path class="cls-1" d="M257.54,223.57c0-9.08,4.93-14.4,13.46-14.4,8.09,0,11.91,4.76,11.91,12.02,0,1.11-.06,2.16-.17,3.54h-17.78c.44,4.21,2.38,6.09,5.98,6.09s4.65-1.66,5.32-3.66l6.31,1.72c-1.16,4.54-4.21,7.98-11.69,7.98-7.92,0-13.35-4.38-13.35-13.29ZM265.02,220.91h10.97c-.11-4.1-1.83-6.09-5.21-6.09s-5.37,1.77-5.76,6.09Z"/>
        <path class="cls-1" d="M285.51,228.61l6.76-1.38c.66,2.88,2.44,4.38,5.71,4.38,2.55,0,3.82-.83,3.88-2.55,0-1.61-1.05-2.49-5.87-3.43-7.2-1.55-9.64-3.93-9.64-8.42,0-5.04,3.6-8.03,11.02-8.03s10.14,2.99,11.08,7.59l-6.7,1.38c-.61-2.71-1.83-3.77-4.54-3.77-2.49,0-3.71.83-3.71,2.38,0,1.44.72,2.49,5.43,3.43,8.2,1.72,10.19,4.43,10.19,8.53,0,5.1-3.38,8.2-11.3,8.2-8.86,0-11.58-3.54-12.3-8.31Z"/>
        <path class="cls-1" d="M313.1,206.17v-5.43h7.87v5.43h-7.87ZM313.26,236.14v-26.25h7.53v26.25h-7.53Z"/>
        <path class="cls-1" d="M336.92,245.89c-10.03,0-12.85-2.05-12.85-5.32,0-2.38,2.6-3.99,6.15-4.71v-.33c-2.83-.39-4.04-1.77-4.04-3.6,0-1.5,1.16-2.82,3.32-3.77l1.94-1c-3.93-1.27-6.09-4.04-6.09-8.14,0-5.87,4.43-9.14,11.91-9.14h13.29v5.65h-2.88c-1.27,0-2.94-.06-5.04-.28l-.06.61c3.27.61,6.04,1.83,6.04,4.87,0,4.38-4.15,7.2-11.52,7.2-1.61,0-3.1-.17-4.38-.44l-.44.72c-.28.5-.5,1-.5,1.44,0,.94.66,1.33,2.33,1.33,2.88,0,5.87-.17,8.59-.17,5.82,0,8.48,2.55,8.48,6.81,0,5.48-3.6,8.25-14.24,8.25ZM345.33,237.86c0-1.27-.89-2.16-2.99-2.16h-8.92c-2.33,0-3.71,1.11-3.71,2.38,0,1.77,1.38,2.55,7.7,2.55s7.92-.94,7.92-2.77ZM332.04,219.3c0,2.11,1.27,3.71,5.04,3.71s5.15-1.61,5.15-3.71-1.55-3.71-5.15-3.71-5.04,1.61-5.04,3.71Z"/>
        <path class="cls-1" d="M361.79,236.14h-7.53v-26.25h7.37v7.04h.5c1.55-5.1,4.76-7.75,8.86-7.75,5.04,0,7.59,3.49,7.59,9.19v17.78h-7.53v-15.67c0-2.66-1.22-4.49-3.99-4.49-3.21,0-5.26,2.27-5.26,5.54v14.62Z"/>
        <path class="cls-1" d="M222.2,292.8l7.59-1.61c.78,3.99,3.6,5.82,7.7,5.82,3.71,0,5.54-1.22,5.54-3.32,0-2.33-1.5-3.54-7.81-4.6-9.19-1.44-12.02-5.04-12.02-10.52,0-6.26,4.38-9.97,13.46-9.97s12.68,4.04,13.63,9.75l-7.92,1.55c-.78-3.38-2.1-5.1-6.09-5.1-3.54,0-5.21,1.22-5.21,3.32,0,1.94.94,3.32,7.48,4.49,10.3,1.83,12.52,5.71,12.52,10.52,0,6.37-4.15,10.25-13.9,10.25-10.63-.06-14.23-4.82-14.96-10.58Z"/>
        <path class="cls-1" d="M256.66,282.34h-3.21v-5.98h3.21v-6.76h7.53v6.76h6.92v5.98h-6.92v10.8c0,2.1.78,3.16,3.05,3.16,1.16,0,2.44-.33,3.43-.67l.83,6.76c-1.99.61-3.32,1-6.2,1-6.09,0-8.64-4.04-8.64-9.03v-12.02Z"/>
        <path class="cls-1" d="M292.1,295.63h-.55c-1.5,5.1-4.71,7.75-8.86,7.75-4.99,0-7.53-3.54-7.53-9.25v-17.78h7.53v15.68c0,2.71,1.22,4.54,3.99,4.54,3.21,0,5.21-2.27,5.21-5.59v-14.62h7.59v26.25h-7.37v-6.98Z"/>
        <path class="cls-1" d="M321.52,295.74h-.44c-1.33,4.6-4.21,7.64-8.59,7.64-5.65,0-8.97-4.82-8.97-13.68s3.32-14.07,9.08-14.07c4.21,0,7.03,2.77,8.42,7.37h.5v-15.95h7.53v35.56h-7.53v-6.87ZM321.52,290.75v-2.05c0-3.82-2.05-6.26-5.37-6.26-3.6,0-5.26,2.33-5.26,7.26s1.61,7.03,5.32,7.03c3.16,0,5.32-2.33,5.32-5.98Z"/>
        <path class="cls-1" d="M334.42,272.64v-5.43h7.87v5.43h-7.87ZM334.59,302.61v-26.25h7.53v26.25h-7.53Z"/>
        <path class="cls-1" d="M346.39,289.48c0-8.75,5.21-13.85,13.57-13.85s13.46,5.1,13.46,13.85-5.1,13.9-13.46,13.9-13.57-5.26-13.57-13.9ZM353.92,289.43c0,4.76,1.72,7.53,5.98,7.53s5.98-2.77,5.98-7.53-1.83-7.48-5.98-7.48-5.98,2.71-5.98,7.48Z"/>
      </g>
    </g>
  </g>
</svg>